{"aspectRatio":"16:9","assets":{"byId":{"8eda952a-9988-4605-9e4b-4267de0a3503":{"loop":false,"id":"8eda952a-9988-4605-9e4b-4267de0a3503","name":"Dynamisk Portfolio Website.mp4","hidden":false,"cloud":{"id":"01CFOE7FAK5Z4TLKYQPJBLS2A6AO622NLE","provider":"cloudbackup"},"fileHashes":{"original":"7f273a29ea25dc71301a5ad4f1b00b09eb94ec9174862c265882e6bd7857342a","transcode":null},"type":"video","metadata":{"size":39131610,"duration":76.3,"width":1366,"height":690,"rotation":0,"creationTime":"2025-04-25T11:11:37.000000Z","audio":{"duration":77.375979,"bitRate":192000,"channels":2,"sampleRate":48000,"size":39131610,"raw":{"streams":[{"index":0,"codec_name":"h264","codec_long_name":"unknown","profile":"77","codec_type":"video","codec_time_base":"1/60","codec_tag_string":"avc1","codec_tag":"0x31637661","width":1366,"height":690,"coded_width":1376,"coded_height":704,"has_b_frames":0,"sample_aspect_ratio":"1:1","display_aspect_ratio":"683:345","pix_fmt":"yuv420p","level":32,"chroma_location":"left","refs":1,"is_avc":"true","nal_length_size":"4","r_frame_rate":"30/1","avg_frame_rate":"30/1","time_base":"1/30000","start_pts":0,"start_time":"0.000000","duration_ts":2289000,"duration":"76.300000","bit_rate":"3905151","bits_per_raw_sample":"8","nb_frames":"2289","nb_read_frames":"1","disposition":{"default":1,"dub":0,"original":0,"comment":0,"lyrics":0,"karaoke":0,"forced":0,"hearing_impaired":0,"visual_impaired":0,"clean_effects":0,"attached_pic":0,"timed_thumbnails":0},"tags":{"creation_time":"2025-04-25T11:11:37.000000Z","language":"und","handler_name":"VideoHandler","encoder":"AVC Coding"}},{"index":1,"codec_name":"aac","codec_long_name":"unknown","profile":"1","codec_type":"audio","codec_time_base":"1/48000","codec_tag_string":"mp4a","codec_tag":"0x6134706d","sample_fmt":"fltp","sample_rate":"48000","channels":2,"channel_layout":"stereo","bits_per_sample":0,"r_frame_rate":"0/0","avg_frame_rate":"0/0","time_base":"1/48000","start_pts":0,"start_time":"0.000000","duration_ts":3714047,"duration":"77.375979","bit_rate":"192000","max_bit_rate":"192000","nb_frames":"3627","disposition":{"default":1,"dub":0,"original":0,"comment":0,"lyrics":0,"karaoke":0,"forced":0,"hearing_impaired":0,"visual_impaired":0,"clean_effects":0,"attached_pic":0,"timed_thumbnails":0},"tags":{"creation_time":"2025-04-25T11:11:37.000000Z","language":"und","handler_name":"SoundHandler"}}],"format":{"filename":"/input.0.mp4","nb_streams":2,"nb_programs":0,"format_name":"mov,mp4,m4a,3gp,3g2,mj2","start_time":"0.000000","duration":"77.375979","size":"39131610","bit_rate":"4045866","probe_score":100,"tags":{"major_brand":"mp42","minor_version":"0","compatible_brands":"mp41isom","creation_time":"2025-04-25T11:11:37.000000Z"}}}},"raw":{"streams":[{"index":0,"codec_name":"h264","codec_long_name":"unknown","profile":"77","codec_type":"video","codec_time_base":"1/60","codec_tag_string":"avc1","codec_tag":"0x31637661","width":1366,"height":690,"coded_width":1376,"coded_height":704,"has_b_frames":0,"sample_aspect_ratio":"1:1","display_aspect_ratio":"683:345","pix_fmt":"yuv420p","level":32,"chroma_location":"left","refs":1,"is_avc":"true","nal_length_size":"4","r_frame_rate":"30/1","avg_frame_rate":"30/1","time_base":"1/30000","start_pts":0,"start_time":"0.000000","duration_ts":2289000,"duration":"76.300000","bit_rate":"3905151","bits_per_raw_sample":"8","nb_frames":"2289","nb_read_frames":"1","disposition":{"default":1,"dub":0,"original":0,"comment":0,"lyrics":0,"karaoke":0,"forced":0,"hearing_impaired":0,"visual_impaired":0,"clean_effects":0,"attached_pic":0,"timed_thumbnails":0},"tags":{"creation_time":"2025-04-25T11:11:37.000000Z","language":"und","handler_name":"VideoHandler","encoder":"AVC Coding"}},{"index":1,"codec_name":"aac","codec_long_name":"unknown","profile":"1","codec_type":"audio","codec_time_base":"1/48000","codec_tag_string":"mp4a","codec_tag":"0x6134706d","sample_fmt":"fltp","sample_rate":"48000","channels":2,"channel_layout":"stereo","bits_per_sample":0,"r_frame_rate":"0/0","avg_frame_rate":"0/0","time_base":"1/48000","start_pts":0,"start_time":"0.000000","duration_ts":3714047,"duration":"77.375979","bit_rate":"192000","max_bit_rate":"192000","nb_frames":"3627","disposition":{"default":1,"dub":0,"original":0,"comment":0,"lyrics":0,"karaoke":0,"forced":0,"hearing_impaired":0,"visual_impaired":0,"clean_effects":0,"attached_pic":0,"timed_thumbnails":0},"tags":{"creation_time":"2025-04-25T11:11:37.000000Z","language":"und","handler_name":"SoundHandler"}}],"format":{"filename":"/input.0.mp4","nb_streams":2,"nb_programs":0,"format_name":"mov,mp4,m4a,3gp,3g2,mj2","start_time":"0.000000","duration":"77.375979","size":"39131610","bit_rate":"4045866","probe_score":100,"tags":{"major_brand":"mp42","minor_version":"0","compatible_brands":"mp41isom","creation_time":"2025-04-25T11:11:37.000000Z"}}}}}},"allIds":["8eda952a-9988-4605-9e4b-4267de0a3503"]},"entities":{},"createdAt":"2025-04-25T11:30:52.332Z","flavor":"clipchamp","groups":{},"id":"01CFOE7FDEJRELGHBF4RD2ZUTOT2KO256B","items":{"byId":{"62e06e0b-428e-4e6e-a1c9-f0927c7ae251":{"id":"62e06e0b-428e-4e6e-a1c9-f0927c7ae251","trim":{"from":0,"to":0},"speed":1,"startTime":0,"trackId":"f7b161ac-f9ec-4226-9872-3981e991d08e","transform":{"strategy":"freehand","hasFixedBounds":true},"disableCaptions":false,"duration":76.3,"assetId":"8eda952a-9988-4605-9e4b-4267de0a3503"}},"allIds":["62e06e0b-428e-4e6e-a1c9-f0927c7ae251"],"transitions":{}},"name":"Video Project 2","renderSettings":{},"schemaVersion":"8.1.0","tracks":{"byId":{"f7b161ac-f9ec-4226-9872-3981e991d08e":{"id":"f7b161ac-f9ec-4226-9872-3981e991d08e","hidden":false,"type":"video","itemIds":["62e06e0b-428e-4e6e-a1c9-f0927c7ae251"],"transitionIds":[]}},"allIds":["f7b161ac-f9ec-4226-9872-3981e991d08e"]},"updatedAt":"2025-04-25T11:31:06.615Z","version":2}